<svg width="171" height="32" viewBox="0 0 171 32" fill="none" xmlns="http://www.w3.org/2000/svg">
<rect width="171" height="32" rx="6" fill="#0085FF"/>
<g clip-path="url(#clip0_103_12)">
<path d="M12.9989 11.2387L19.5374 7.67748C19.8937 7.48338 20.3254 7.48836 20.6772 7.69063L26.9798 11.3145C27.2695 11.481 27.448 11.7896 27.448 12.1237V19.8218C27.448 20.1566 27.2686 20.4658 26.978 20.632L20.4477 24.3674C20.1583 24.5329 19.8025 24.5315 19.5143 24.3637L12.9755 20.5546C12.6885 20.3874 12.5119 20.0802 12.5119 19.748V12.0585C12.5119 11.7167 12.6987 11.4022 12.9989 11.2387Z" fill="#151515"/>
<path fill-rule="evenodd" clip-rule="evenodd" d="M19.9794 16.0304V23.3754C20.1073 23.3754 20.1914 23.3477 20.3062 23.2821L26.1876 19.9213C26.4197 19.7883 26.5144 19.5822 26.5144 19.3145V12.4996C26.5144 12.3654 26.4862 12.285 26.4209 12.1729L20.1676 15.7062C20.0513 15.7727 19.9794 15.8964 19.9794 16.0304ZM23.2469 20.2481C23.2469 20.4348 23.1769 20.5281 23.0135 20.6215L21.053 21.7417C20.913 21.835 20.7263 21.7884 20.7263 21.6017V16.6072C20.7263 16.4736 20.8439 16.3005 20.9596 16.2338L25.4407 13.6666C25.5652 13.5949 25.6741 13.7097 25.6741 13.8533V16.5139C25.6741 16.6518 25.6091 16.7757 25.4874 16.8406L23.4803 17.9142C23.3586 17.9791 23.2469 18.103 23.2469 18.241V20.2481Z" fill="#999999"/>
<path fill-rule="evenodd" clip-rule="evenodd" d="M13.4445 19.3144V12.4995C13.4445 12.2315 13.5853 11.979 13.818 11.846L19.5126 8.6253C19.6353 8.56029 19.8393 8.53195 19.9794 8.53195C20.1195 8.53195 20.3355 8.56663 20.4462 8.6253L26.0942 11.846C26.2059 11.9121 26.3577 12.0642 26.4209 12.1728L20.1661 15.7203C20.0498 15.7867 19.9794 15.913 19.9794 16.047V23.3754C19.8515 23.3754 19.7208 23.3476 19.606 23.282L13.8646 19.9679C13.6319 19.8349 13.4445 19.5824 13.4445 19.3144ZM14.2847 13.8532V16.5138C14.2847 16.7005 14.3314 16.7939 14.5181 16.8872L16.4786 18.0075C16.6653 18.1008 16.712 18.2408 16.712 18.3809V20.248C16.712 20.4346 16.7586 20.528 16.9454 20.6214L18.9058 21.7417C19.0925 21.835 19.2326 21.7884 19.2326 21.6016V16.6072C19.2326 16.4671 19.1859 16.327 18.9992 16.2337L14.6115 13.7131C14.4715 13.6198 14.2847 13.6665 14.2847 13.8532ZM21.9399 10.6791L20.2128 11.6593C20.0728 11.7527 19.8861 11.7527 19.746 11.6593L18.0189 10.6791C17.9052 10.6149 17.7594 10.6152 17.6455 10.6791L15.4984 11.8927C15.3116 11.9861 15.3116 12.1728 15.4984 12.2661L19.7926 14.74C19.9076 14.8058 20.0512 14.8058 20.1661 14.74L24.4604 12.2661C24.6004 12.1728 24.6471 11.9861 24.4604 11.8927L22.3133 10.6791C22.1994 10.6152 22.0536 10.6149 21.9399 10.6791Z" fill="#F2F2F2"/>
</g>
<path d="M44.6699 15.5V15.9688C44.6699 16.6133 44.5859 17.1914 44.418 17.7031C44.25 18.2148 44.0098 18.6504 43.6973 19.0098C43.3887 19.3691 43.0176 19.6445 42.584 19.8359C42.1504 20.0234 41.6699 20.1172 41.1426 20.1172C40.6191 20.1172 40.1406 20.0234 39.707 19.8359C39.2773 19.6445 38.9043 19.3691 38.5879 19.0098C38.2715 18.6504 38.0254 18.2148 37.8496 17.7031C37.6777 17.1914 37.5918 16.6133 37.5918 15.9688V15.5C37.5918 14.8555 37.6777 14.2793 37.8496 13.7715C38.0215 13.2598 38.2637 12.8242 38.5762 12.4648C38.8926 12.1016 39.2656 11.8262 39.6953 11.6387C40.1289 11.4473 40.6074 11.3516 41.1309 11.3516C41.6582 11.3516 42.1387 11.4473 42.5723 11.6387C43.0059 11.8262 43.3789 12.1016 43.6914 12.4648C44.0039 12.8242 44.2441 13.2598 44.4121 13.7715C44.584 14.2793 44.6699 14.8555 44.6699 15.5ZM43.1992 15.9688V15.4883C43.1992 15.0117 43.1523 14.5918 43.0586 14.2285C42.9688 13.8613 42.834 13.5547 42.6543 13.3086C42.4785 13.0586 42.2617 12.8711 42.0039 12.7461C41.7461 12.6172 41.4551 12.5527 41.1309 12.5527C40.8066 12.5527 40.5176 12.6172 40.2637 12.7461C40.0098 12.8711 39.793 13.0586 39.6133 13.3086C39.4375 13.5547 39.3027 13.8613 39.209 14.2285C39.1152 14.5918 39.0684 15.0117 39.0684 15.4883V15.9688C39.0684 16.4453 39.1152 16.8672 39.209 17.2344C39.3027 17.6016 39.4395 17.9121 39.6191 18.166C39.8027 18.416 40.0215 18.6055 40.2754 18.7344C40.5293 18.8594 40.8184 18.9219 41.1426 18.9219C41.4707 18.9219 41.7617 18.8594 42.0156 18.7344C42.2695 18.6055 42.4844 18.416 42.6602 18.166C42.8359 17.9121 42.9688 17.6016 43.0586 17.2344C43.1523 16.8672 43.1992 16.4453 43.1992 15.9688ZM47.418 14.8789V22.4375H46.0059V13.6602H47.3066L47.418 14.8789ZM51.5488 16.7715V16.8945C51.5488 17.3555 51.4941 17.7832 51.3848 18.1777C51.2793 18.5684 51.1211 18.9102 50.9102 19.2031C50.7031 19.4922 50.4473 19.7168 50.1426 19.877C49.8379 20.0371 49.4863 20.1172 49.0879 20.1172C48.6934 20.1172 48.3477 20.0449 48.0508 19.9004C47.7578 19.752 47.5098 19.543 47.3066 19.2734C47.1035 19.0039 46.9395 18.6875 46.8145 18.3242C46.6934 17.957 46.6074 17.5547 46.5566 17.1172V16.6426C46.6074 16.1777 46.6934 15.7559 46.8145 15.377C46.9395 14.998 47.1035 14.6719 47.3066 14.3984C47.5098 14.125 47.7578 13.9141 48.0508 13.7656C48.3438 13.6172 48.6855 13.543 49.0762 13.543C49.4746 13.543 49.8281 13.6211 50.1367 13.7773C50.4453 13.9297 50.7051 14.1484 50.916 14.4336C51.127 14.7148 51.2852 15.0547 51.3906 15.4531C51.4961 15.8477 51.5488 16.2871 51.5488 16.7715ZM50.1367 16.8945V16.7715C50.1367 16.4785 50.1094 16.207 50.0547 15.957C50 15.7031 49.9141 15.4805 49.7969 15.2891C49.6797 15.0977 49.5293 14.9492 49.3457 14.8438C49.166 14.7344 48.9492 14.6797 48.6953 14.6797C48.4453 14.6797 48.2305 14.7227 48.0508 14.8086C47.8711 14.8906 47.7207 15.0059 47.5996 15.1543C47.4785 15.3027 47.3848 15.4766 47.3184 15.6758C47.252 15.8711 47.2051 16.084 47.1777 16.3145V17.4512C47.2246 17.7324 47.3047 17.9902 47.418 18.2246C47.5312 18.459 47.6914 18.6465 47.8984 18.7871C48.1094 18.9238 48.3789 18.9922 48.707 18.9922C48.9609 18.9922 49.1777 18.9375 49.3574 18.8281C49.5371 18.7188 49.6836 18.5684 49.7969 18.377C49.9141 18.1816 50 17.957 50.0547 17.7031C50.1094 17.4492 50.1367 17.1797 50.1367 16.8945ZM55.5449 20.1172C55.0762 20.1172 54.6523 20.041 54.2734 19.8887C53.8984 19.7324 53.5781 19.5156 53.3125 19.2383C53.0508 18.9609 52.8496 18.6348 52.709 18.2598C52.5684 17.8848 52.498 17.4805 52.498 17.0469V16.8125C52.498 16.3164 52.5703 15.8672 52.7148 15.4648C52.8594 15.0625 53.0605 14.7188 53.3184 14.4336C53.5762 14.1445 53.8809 13.9238 54.2324 13.7715C54.584 13.6191 54.9648 13.543 55.375 13.543C55.8281 13.543 56.2246 13.6191 56.5645 13.7715C56.9043 13.9238 57.1855 14.1387 57.4082 14.416C57.6348 14.6895 57.8027 15.0156 57.9121 15.3945C58.0254 15.7734 58.082 16.1914 58.082 16.6484V17.252H53.1836V16.2383H56.6875V16.127C56.6797 15.873 56.6289 15.6348 56.5352 15.4121C56.4453 15.1895 56.3066 15.0098 56.1191 14.873C55.9316 14.7363 55.6816 14.668 55.3691 14.668C55.1348 14.668 54.9258 14.7188 54.7422 14.8203C54.5625 14.918 54.4121 15.0605 54.291 15.248C54.1699 15.4355 54.0762 15.6621 54.0098 15.9277C53.9473 16.1895 53.916 16.4844 53.916 16.8125V17.0469C53.916 17.3242 53.9531 17.582 54.0273 17.8203C54.1055 18.0547 54.2188 18.2598 54.3672 18.4355C54.5156 18.6113 54.6953 18.75 54.9062 18.8516C55.1172 18.9492 55.3574 18.998 55.627 18.998C55.9668 18.998 56.2695 18.9297 56.5352 18.793C56.8008 18.6562 57.0312 18.4629 57.2266 18.2129L57.9707 18.9336C57.834 19.1328 57.6562 19.3242 57.4375 19.5078C57.2188 19.6875 56.9512 19.834 56.6348 19.9473C56.3223 20.0605 55.959 20.1172 55.5449 20.1172ZM60.584 15.0137V20H59.1719V13.6602H60.502L60.584 15.0137ZM60.332 16.5957L59.875 16.5898C59.8789 16.1406 59.9414 15.7285 60.0625 15.3535C60.1875 14.9785 60.3594 14.6562 60.5781 14.3867C60.8008 14.1172 61.0664 13.9102 61.375 13.7656C61.6836 13.6172 62.0273 13.543 62.4062 13.543C62.7109 13.543 62.9863 13.5859 63.2324 13.6719C63.4824 13.7539 63.6953 13.8887 63.8711 14.0762C64.0508 14.2637 64.1875 14.5078 64.2812 14.8086C64.375 15.1055 64.4219 15.4707 64.4219 15.9043V20H63.0039V15.8984C63.0039 15.5938 62.959 15.3535 62.8691 15.1777C62.7832 14.998 62.6562 14.8711 62.4883 14.7969C62.3242 14.7188 62.1191 14.6797 61.873 14.6797C61.6309 14.6797 61.4141 14.7305 61.2227 14.832C61.0312 14.9336 60.8691 15.0723 60.7363 15.248C60.6074 15.4238 60.5078 15.627 60.4375 15.8574C60.3672 16.0879 60.332 16.334 60.332 16.5957ZM70.3633 13.6602V20H68.9453V13.6602H70.3633ZM68.8516 11.9961C68.8516 11.7812 68.9219 11.6035 69.0625 11.4629C69.207 11.3184 69.4062 11.2461 69.6602 11.2461C69.9102 11.2461 70.1074 11.3184 70.252 11.4629C70.3965 11.6035 70.4688 11.7812 70.4688 11.9961C70.4688 12.207 70.3965 12.3828 70.252 12.5234C70.1074 12.6641 69.9102 12.7344 69.6602 12.7344C69.4062 12.7344 69.207 12.6641 69.0625 12.5234C68.9219 12.3828 68.8516 12.207 68.8516 11.9961ZM73.3105 15.0137V20H71.8984V13.6602H73.2285L73.3105 15.0137ZM73.0586 16.5957L72.6016 16.5898C72.6055 16.1406 72.668 15.7285 72.7891 15.3535C72.9141 14.9785 73.0859 14.6562 73.3047 14.3867C73.5273 14.1172 73.793 13.9102 74.1016 13.7656C74.4102 13.6172 74.7539 13.543 75.1328 13.543C75.4375 13.543 75.7129 13.5859 75.959 13.6719C76.209 13.7539 76.4219 13.8887 76.5977 14.0762C76.7773 14.2637 76.9141 14.5078 77.0078 14.8086C77.1016 15.1055 77.1484 15.4707 77.1484 15.9043V20H75.7305V15.8984C75.7305 15.5938 75.6855 15.3535 75.5957 15.1777C75.5098 14.998 75.3828 14.8711 75.2148 14.7969C75.0508 14.7188 74.8457 14.6797 74.5996 14.6797C74.3574 14.6797 74.1406 14.7305 73.9492 14.832C73.7578 14.9336 73.5957 15.0723 73.4629 15.248C73.334 15.4238 73.2344 15.627 73.1641 15.8574C73.0938 16.0879 73.0586 16.334 73.0586 16.5957ZM86.7578 17.2227H88.2227C88.1758 17.7812 88.0195 18.2793 87.7539 18.7168C87.4883 19.1504 87.1152 19.4922 86.6348 19.7422C86.1543 19.9922 85.5703 20.1172 84.8828 20.1172C84.3555 20.1172 83.8809 20.0234 83.459 19.8359C83.0371 19.6445 82.6758 19.375 82.375 19.0273C82.0742 18.6758 81.8438 18.252 81.6836 17.7559C81.5273 17.2598 81.4492 16.7051 81.4492 16.0918V15.3828C81.4492 14.7695 81.5293 14.2148 81.6895 13.7188C81.8535 13.2227 82.0879 12.7988 82.3926 12.4473C82.6973 12.0918 83.0625 11.8203 83.4883 11.6328C83.918 11.4453 84.4004 11.3516 84.9355 11.3516C85.6152 11.3516 86.1895 11.4766 86.6582 11.7266C87.127 11.9766 87.4902 12.3223 87.748 12.7637C88.0098 13.2051 88.1699 13.7109 88.2285 14.2812H86.7637C86.7246 13.9141 86.6387 13.5996 86.5059 13.3379C86.377 13.0762 86.1855 12.877 85.9316 12.7402C85.6777 12.5996 85.3457 12.5293 84.9355 12.5293C84.5996 12.5293 84.3066 12.5918 84.0566 12.7168C83.8066 12.8418 83.5977 13.0254 83.4297 13.2676C83.2617 13.5098 83.1348 13.8086 83.0488 14.1641C82.9668 14.5156 82.9258 14.918 82.9258 15.3711V16.0918C82.9258 16.5215 82.9629 16.9121 83.0371 17.2637C83.1152 17.6113 83.2324 17.9102 83.3887 18.1602C83.5488 18.4102 83.752 18.6035 83.998 18.7402C84.2441 18.877 84.5391 18.9453 84.8828 18.9453C85.3008 18.9453 85.6387 18.8789 85.8965 18.7461C86.1582 18.6133 86.3555 18.4199 86.4883 18.166C86.625 17.9082 86.7148 17.5938 86.7578 17.2227ZM89.1484 16.9004V16.7656C89.1484 16.3086 89.2148 15.8848 89.3477 15.4941C89.4805 15.0996 89.6719 14.7578 89.9219 14.4688C90.1758 14.1758 90.4844 13.9492 90.8477 13.7891C91.2148 13.625 91.6289 13.543 92.0898 13.543C92.5547 13.543 92.9688 13.625 93.332 13.7891C93.6992 13.9492 94.0098 14.1758 94.2637 14.4688C94.5176 14.7578 94.7109 15.0996 94.8438 15.4941C94.9766 15.8848 95.043 16.3086 95.043 16.7656V16.9004C95.043 17.3574 94.9766 17.7812 94.8438 18.1719C94.7109 18.5625 94.5176 18.9043 94.2637 19.1973C94.0098 19.4863 93.7012 19.7129 93.3379 19.877C92.9746 20.0371 92.5625 20.1172 92.1016 20.1172C91.6367 20.1172 91.2207 20.0371 90.8535 19.877C90.4902 19.7129 90.1816 19.4863 89.9277 19.1973C89.6738 18.9043 89.4805 18.5625 89.3477 18.1719C89.2148 17.7812 89.1484 17.3574 89.1484 16.9004ZM90.5605 16.7656V16.9004C90.5605 17.1855 90.5898 17.4551 90.6484 17.709C90.707 17.9629 90.7988 18.1855 90.9238 18.377C91.0488 18.5684 91.209 18.7188 91.4043 18.8281C91.5996 18.9375 91.832 18.9922 92.1016 18.9922C92.3633 18.9922 92.5898 18.9375 92.7812 18.8281C92.9766 18.7188 93.1367 18.5684 93.2617 18.377C93.3867 18.1855 93.4785 17.9629 93.5371 17.709C93.5996 17.4551 93.6309 17.1855 93.6309 16.9004V16.7656C93.6309 16.4844 93.5996 16.2188 93.5371 15.9688C93.4785 15.7148 93.3848 15.4902 93.2559 15.2949C93.1309 15.0996 92.9707 14.9473 92.7754 14.8379C92.584 14.7246 92.3555 14.668 92.0898 14.668C91.8242 14.668 91.5938 14.7246 91.3984 14.8379C91.207 14.9473 91.0488 15.0996 90.9238 15.2949C90.7988 15.4902 90.707 15.7148 90.6484 15.9688C90.5898 16.2188 90.5605 16.4844 90.5605 16.7656ZM100.094 18.6875V11H101.512V20H100.229L100.094 18.6875ZM95.9688 16.9004V16.7773C95.9688 16.2969 96.0254 15.8594 96.1387 15.4648C96.252 15.0664 96.416 14.7246 96.6309 14.4395C96.8457 14.1504 97.1074 13.9297 97.416 13.7773C97.7246 13.6211 98.0723 13.543 98.459 13.543C98.8418 13.543 99.1777 13.6172 99.4668 13.7656C99.7559 13.9141 100.002 14.127 100.205 14.4043C100.408 14.6777 100.57 15.0059 100.691 15.3887C100.812 15.7676 100.898 16.1895 100.949 16.6543V17.0469C100.898 17.5 100.812 17.9141 100.691 18.2891C100.57 18.6641 100.408 18.9883 100.205 19.2617C100.002 19.5352 99.7539 19.7461 99.4609 19.8945C99.1719 20.043 98.834 20.1172 98.4473 20.1172C98.0645 20.1172 97.7188 20.0371 97.4102 19.877C97.1055 19.7168 96.8457 19.4922 96.6309 19.2031C96.416 18.9141 96.252 18.5742 96.1387 18.1836C96.0254 17.7891 95.9688 17.3613 95.9688 16.9004ZM97.3809 16.7773V16.9004C97.3809 17.1895 97.4062 17.459 97.457 17.709C97.5117 17.959 97.5957 18.1797 97.709 18.3711C97.8223 18.5586 97.9688 18.707 98.1484 18.8164C98.332 18.9219 98.5508 18.9746 98.8047 18.9746C99.125 18.9746 99.3887 18.9043 99.5957 18.7637C99.8027 18.623 99.9648 18.4336 100.082 18.1953C100.203 17.9531 100.285 17.6836 100.328 17.3867V16.3262C100.305 16.0957 100.256 15.8809 100.182 15.6816C100.111 15.4824 100.016 15.3086 99.8945 15.1602C99.7734 15.0078 99.623 14.8906 99.4434 14.8086C99.2676 14.7227 99.0586 14.6797 98.8164 14.6797C98.5586 14.6797 98.3398 14.7344 98.1602 14.8438C97.9805 14.9531 97.832 15.1035 97.7148 15.2949C97.6016 15.4863 97.5176 15.709 97.4629 15.9629C97.4082 16.2168 97.3809 16.4883 97.3809 16.7773ZM105.783 20.1172C105.314 20.1172 104.891 20.041 104.512 19.8887C104.137 19.7324 103.816 19.5156 103.551 19.2383C103.289 18.9609 103.088 18.6348 102.947 18.2598C102.807 17.8848 102.736 17.4805 102.736 17.0469V16.8125C102.736 16.3164 102.809 15.8672 102.953 15.4648C103.098 15.0625 103.299 14.7188 103.557 14.4336C103.814 14.1445 104.119 13.9238 104.471 13.7715C104.822 13.6191 105.203 13.543 105.613 13.543C106.066 13.543 106.463 13.6191 106.803 13.7715C107.143 13.9238 107.424 14.1387 107.646 14.416C107.873 14.6895 108.041 15.0156 108.15 15.3945C108.264 15.7734 108.32 16.1914 108.32 16.6484V17.252H103.422V16.2383H106.926V16.127C106.918 15.873 106.867 15.6348 106.773 15.4121C106.684 15.1895 106.545 15.0098 106.357 14.873C106.17 14.7363 105.92 14.668 105.607 14.668C105.373 14.668 105.164 14.7188 104.98 14.8203C104.801 14.918 104.65 15.0605 104.529 15.248C104.408 15.4355 104.314 15.6621 104.248 15.9277C104.186 16.1895 104.154 16.4844 104.154 16.8125V17.0469C104.154 17.3242 104.191 17.582 104.266 17.8203C104.344 18.0547 104.457 18.2598 104.605 18.4355C104.754 18.6113 104.934 18.75 105.145 18.8516C105.355 18.9492 105.596 18.998 105.865 18.998C106.205 18.998 106.508 18.9297 106.773 18.793C107.039 18.6562 107.27 18.4629 107.465 18.2129L108.209 18.9336C108.072 19.1328 107.895 19.3242 107.676 19.5078C107.457 19.6875 107.189 19.834 106.873 19.9473C106.561 20.0605 106.197 20.1172 105.783 20.1172ZM114.051 17.8027C114.051 17.627 114.023 17.4707 113.969 17.334C113.918 17.1973 113.826 17.0723 113.693 16.959C113.561 16.8457 113.373 16.7363 113.131 16.6309C112.893 16.5215 112.588 16.4102 112.217 16.2969C111.811 16.1719 111.436 16.0332 111.092 15.8809C110.752 15.7246 110.455 15.5449 110.201 15.3418C109.947 15.1348 109.75 14.8984 109.609 14.6328C109.469 14.3633 109.398 14.0527 109.398 13.7012C109.398 13.3535 109.471 13.0371 109.615 12.752C109.764 12.4668 109.973 12.2207 110.242 12.0137C110.516 11.8027 110.838 11.6406 111.209 11.5273C111.58 11.4102 111.99 11.3516 112.439 11.3516C113.072 11.3516 113.617 11.4688 114.074 11.7031C114.535 11.9375 114.889 12.252 115.135 12.6465C115.385 13.041 115.51 13.4766 115.51 13.9531H114.051C114.051 13.6719 113.99 13.4238 113.869 13.209C113.752 12.9902 113.572 12.8184 113.33 12.6934C113.092 12.5684 112.789 12.5059 112.422 12.5059C112.074 12.5059 111.785 12.5586 111.555 12.6641C111.324 12.7695 111.152 12.9121 111.039 13.0918C110.926 13.2715 110.869 13.4746 110.869 13.7012C110.869 13.8613 110.906 14.0078 110.98 14.1406C111.055 14.2695 111.168 14.3906 111.32 14.5039C111.473 14.6133 111.664 14.7168 111.895 14.8145C112.125 14.9121 112.396 15.0059 112.709 15.0957C113.182 15.2363 113.594 15.3926 113.945 15.5645C114.297 15.7324 114.59 15.9238 114.824 16.1387C115.059 16.3535 115.234 16.5977 115.352 16.8711C115.469 17.1406 115.527 17.4473 115.527 17.791C115.527 18.1504 115.455 18.4746 115.311 18.7637C115.166 19.0488 114.959 19.293 114.689 19.4961C114.424 19.6953 114.104 19.8496 113.729 19.959C113.357 20.0645 112.943 20.1172 112.486 20.1172C112.076 20.1172 111.672 20.0625 111.273 19.9531C110.879 19.8438 110.52 19.6777 110.195 19.4551C109.871 19.2285 109.613 18.9473 109.422 18.6113C109.23 18.2715 109.135 17.875 109.135 17.4219H110.605C110.605 17.6992 110.652 17.9355 110.746 18.1309C110.844 18.3262 110.979 18.4863 111.15 18.6113C111.322 18.7324 111.521 18.8223 111.748 18.8809C111.979 18.9395 112.225 18.9688 112.486 18.9688C112.83 18.9688 113.117 18.9199 113.348 18.8223C113.582 18.7246 113.758 18.5879 113.875 18.4121C113.992 18.2363 114.051 18.0332 114.051 17.8027ZM120.262 18.7285V15.7051C120.262 15.4785 120.221 15.2832 120.139 15.1191C120.057 14.9551 119.932 14.8281 119.764 14.7383C119.6 14.6484 119.393 14.6035 119.143 14.6035C118.912 14.6035 118.713 14.6426 118.545 14.7207C118.377 14.7988 118.246 14.9043 118.152 15.0371C118.059 15.1699 118.012 15.3203 118.012 15.4883H116.605C116.605 15.2383 116.666 14.9961 116.787 14.7617C116.908 14.5273 117.084 14.3184 117.314 14.1348C117.545 13.9512 117.82 13.8066 118.141 13.7012C118.461 13.5957 118.82 13.543 119.219 13.543C119.695 13.543 120.117 13.623 120.484 13.7832C120.855 13.9434 121.146 14.1855 121.357 14.5098C121.572 14.8301 121.68 15.2324 121.68 15.7168V18.5352C121.68 18.8242 121.699 19.084 121.738 19.3145C121.781 19.541 121.842 19.7383 121.92 19.9062V20H120.473C120.406 19.8477 120.354 19.6543 120.314 19.4199C120.279 19.1816 120.262 18.9512 120.262 18.7285ZM120.467 16.1445L120.479 17.0176H119.465C119.203 17.0176 118.973 17.043 118.773 17.0938C118.574 17.1406 118.408 17.2109 118.275 17.3047C118.143 17.3984 118.043 17.5117 117.977 17.6445C117.91 17.7773 117.877 17.9277 117.877 18.0957C117.877 18.2637 117.916 18.418 117.994 18.5586C118.072 18.6953 118.186 18.8027 118.334 18.8809C118.486 18.959 118.67 18.998 118.885 18.998C119.174 18.998 119.426 18.9395 119.641 18.8223C119.859 18.7012 120.031 18.5547 120.156 18.3828C120.281 18.207 120.348 18.041 120.355 17.8848L120.812 18.5117C120.766 18.6719 120.686 18.8438 120.572 19.0273C120.459 19.2109 120.311 19.3867 120.127 19.5547C119.947 19.7188 119.73 19.8535 119.477 19.959C119.227 20.0645 118.938 20.1172 118.609 20.1172C118.195 20.1172 117.826 20.0352 117.502 19.8711C117.178 19.7031 116.924 19.4785 116.74 19.1973C116.557 18.9121 116.465 18.5898 116.465 18.2305C116.465 17.8945 116.527 17.5977 116.652 17.3398C116.781 17.0781 116.969 16.8594 117.215 16.6836C117.465 16.5078 117.77 16.375 118.129 16.2852C118.488 16.1914 118.898 16.1445 119.359 16.1445H120.467ZM124.557 15.0137V20H123.145V13.6602H124.475L124.557 15.0137ZM124.305 16.5957L123.848 16.5898C123.852 16.1406 123.914 15.7285 124.035 15.3535C124.16 14.9785 124.332 14.6562 124.551 14.3867C124.773 14.1172 125.039 13.9102 125.348 13.7656C125.656 13.6172 126 13.543 126.379 13.543C126.684 13.543 126.959 13.5859 127.205 13.6719C127.455 13.7539 127.668 13.8887 127.844 14.0762C128.023 14.2637 128.16 14.5078 128.254 14.8086C128.348 15.1055 128.395 15.4707 128.395 15.9043V20H126.977V15.8984C126.977 15.5938 126.932 15.3535 126.842 15.1777C126.756 14.998 126.629 14.8711 126.461 14.7969C126.297 14.7188 126.092 14.6797 125.846 14.6797C125.604 14.6797 125.387 14.7305 125.195 14.832C125.004 14.9336 124.842 15.0723 124.709 15.248C124.58 15.4238 124.48 15.627 124.41 15.8574C124.34 16.0879 124.305 16.334 124.305 16.5957ZM133.703 18.6875V11H135.121V20H133.838L133.703 18.6875ZM129.578 16.9004V16.7773C129.578 16.2969 129.635 15.8594 129.748 15.4648C129.861 15.0664 130.025 14.7246 130.24 14.4395C130.455 14.1504 130.717 13.9297 131.025 13.7773C131.334 13.6211 131.682 13.543 132.068 13.543C132.451 13.543 132.787 13.6172 133.076 13.7656C133.365 13.9141 133.611 14.127 133.814 14.4043C134.018 14.6777 134.18 15.0059 134.301 15.3887C134.422 15.7676 134.508 16.1895 134.559 16.6543V17.0469C134.508 17.5 134.422 17.9141 134.301 18.2891C134.18 18.6641 134.018 18.9883 133.814 19.2617C133.611 19.5352 133.363 19.7461 133.07 19.8945C132.781 20.043 132.443 20.1172 132.057 20.1172C131.674 20.1172 131.328 20.0371 131.02 19.877C130.715 19.7168 130.455 19.4922 130.24 19.2031C130.025 18.9141 129.861 18.5742 129.748 18.1836C129.635 17.7891 129.578 17.3613 129.578 16.9004ZM130.99 16.7773V16.9004C130.99 17.1895 131.016 17.459 131.066 17.709C131.121 17.959 131.205 18.1797 131.318 18.3711C131.432 18.5586 131.578 18.707 131.758 18.8164C131.941 18.9219 132.16 18.9746 132.414 18.9746C132.734 18.9746 132.998 18.9043 133.205 18.7637C133.412 18.623 133.574 18.4336 133.691 18.1953C133.812 17.9531 133.895 17.6836 133.938 17.3867V16.3262C133.914 16.0957 133.865 15.8809 133.791 15.6816C133.721 15.4824 133.625 15.3086 133.504 15.1602C133.383 15.0078 133.232 14.8906 133.053 14.8086C132.877 14.7227 132.668 14.6797 132.426 14.6797C132.168 14.6797 131.949 14.7344 131.77 14.8438C131.59 14.9531 131.441 15.1035 131.324 15.2949C131.211 15.4863 131.127 15.709 131.072 15.9629C131.018 16.2168 130.99 16.4883 130.99 16.7773ZM136.604 11H138.016V18.6465L137.881 20H136.604V11ZM142.152 16.7715V16.8945C142.152 17.3633 142.1 17.7949 141.994 18.1895C141.893 18.5801 141.736 18.9199 141.525 19.209C141.318 19.498 141.061 19.7227 140.752 19.8828C140.447 20.0391 140.094 20.1172 139.691 20.1172C139.297 20.1172 138.953 20.043 138.66 19.8945C138.367 19.7461 138.121 19.5352 137.922 19.2617C137.727 18.9883 137.568 18.6621 137.447 18.2832C137.326 17.9043 137.24 17.4863 137.189 17.0293V16.6367C137.24 16.1758 137.326 15.7578 137.447 15.3828C137.568 15.0039 137.727 14.6777 137.922 14.4043C138.121 14.127 138.365 13.9141 138.654 13.7656C138.947 13.6172 139.289 13.543 139.68 13.543C140.086 13.543 140.443 13.6211 140.752 13.7773C141.064 13.9336 141.324 14.1562 141.531 14.4453C141.738 14.7305 141.893 15.0703 141.994 15.4648C142.1 15.8594 142.152 16.2949 142.152 16.7715ZM140.74 16.8945V16.7715C140.74 16.4863 140.717 16.2188 140.67 15.9688C140.623 15.7148 140.545 15.4922 140.436 15.3008C140.33 15.1094 140.186 14.959 140.002 14.8496C139.822 14.7363 139.598 14.6797 139.328 14.6797C139.078 14.6797 138.863 14.7227 138.684 14.8086C138.504 14.8945 138.354 15.0117 138.232 15.1602C138.111 15.3086 138.016 15.4805 137.945 15.6758C137.879 15.8711 137.834 16.082 137.811 16.3086V17.3691C137.846 17.6621 137.92 17.9316 138.033 18.1777C138.15 18.4199 138.314 18.6152 138.525 18.7637C138.736 18.9082 139.008 18.9805 139.34 18.9805C139.602 18.9805 139.822 18.9277 140.002 18.8223C140.182 18.7168 140.324 18.5703 140.43 18.3828C140.539 18.1914 140.617 17.9688 140.664 17.7148C140.715 17.4609 140.74 17.1875 140.74 16.8945ZM143.078 16.9004V16.7656C143.078 16.3086 143.145 15.8848 143.277 15.4941C143.41 15.0996 143.602 14.7578 143.852 14.4688C144.105 14.1758 144.414 13.9492 144.777 13.7891C145.145 13.625 145.559 13.543 146.02 13.543C146.484 13.543 146.898 13.625 147.262 13.7891C147.629 13.9492 147.939 14.1758 148.193 14.4688C148.447 14.7578 148.641 15.0996 148.773 15.4941C148.906 15.8848 148.973 16.3086 148.973 16.7656V16.9004C148.973 17.3574 148.906 17.7812 148.773 18.1719C148.641 18.5625 148.447 18.9043 148.193 19.1973C147.939 19.4863 147.631 19.7129 147.268 19.877C146.904 20.0371 146.492 20.1172 146.031 20.1172C145.566 20.1172 145.15 20.0371 144.783 19.877C144.42 19.7129 144.111 19.4863 143.857 19.1973C143.604 18.9043 143.41 18.5625 143.277 18.1719C143.145 17.7812 143.078 17.3574 143.078 16.9004ZM144.49 16.7656V16.9004C144.49 17.1855 144.52 17.4551 144.578 17.709C144.637 17.9629 144.729 18.1855 144.854 18.377C144.979 18.5684 145.139 18.7188 145.334 18.8281C145.529 18.9375 145.762 18.9922 146.031 18.9922C146.293 18.9922 146.52 18.9375 146.711 18.8281C146.906 18.7188 147.066 18.5684 147.191 18.377C147.316 18.1855 147.408 17.9629 147.467 17.709C147.529 17.4551 147.561 17.1855 147.561 16.9004V16.7656C147.561 16.4844 147.529 16.2188 147.467 15.9688C147.408 15.7148 147.314 15.4902 147.186 15.2949C147.061 15.0996 146.9 14.9473 146.705 14.8379C146.514 14.7246 146.285 14.668 146.02 14.668C145.754 14.668 145.523 14.7246 145.328 14.8379C145.137 14.9473 144.979 15.0996 144.854 15.2949C144.729 15.4902 144.637 15.7148 144.578 15.9688C144.52 16.2188 144.49 16.4844 144.49 16.7656ZM151.105 13.6602L152.312 15.7637L153.543 13.6602H155.096L153.174 16.7715L155.172 20H153.619L152.33 17.8086L151.041 20H149.482L151.475 16.7715L149.559 13.6602H151.105Z" fill="white"/>
<defs>
<clipPath id="clip0_103_12">
<rect width="20" height="17" fill="white" transform="translate(10 7.5)"/>
</clipPath>
</defs>
</svg>
